{"title":"Brick Mansions 2014 HDCAM x264 Pimp4003","uid":10044164,"size":640968831,"categoryP":"video","categoryS":"movies","magnet":"?xt=urn:btih:55c940d167f87cc42fb9d3b0be97fa4fc7e7135c&amp;dn=Brick+Mansions+2014+HDCAM+x264+Pimp4003&amp;tr=udp%3A%2F%2Ftracker.openbittorrent.com%3A80&amp;tr=udp%3A%2F%2Fopen.demonii.com%3A1337&amp;tr=udp%3A%2F%2Ftracker.coppersurfer.tk%3A6969&amp;tr=udp%3A%2F%2Fexodus.desync.com%3A6969","seeders":3,"leechers":0,"uploader":"shawnmurthy","files":-1,"time":1398512655,"description":"THIS IS FOR PAUL WALKER...REST IN PEACE MY FRIEND\n\nSCREEN SHOTS\n &lt;a href=&quot;\nhttp://pimp4003.net/torrents.php?id=55c940d167f87cc42fb9d3b0be97fa4fc7e7135c&quot; rel=&quot;nofollow&quot; target=&quot;_NEW&quot;&gt;\nhttp://pimp4003.net/torrents.php?id=55c940d167f87cc42fb9d3b0be97fa4fc7e7135c&lt;/a&gt;\n\nBrick Mansions 2014 HDCAM x264 Pimp4003\n &lt;a href=&quot;\nhttp://www.imdb.com/title/tt1430612/&quot; rel=&quot;nofollow&quot; target=&quot;_NEW&quot;&gt;\nhttp://www.imdb.com/title/tt1430612/&lt;/a&gt;\n\nAn undercover Detroit cop navigates a dangerous neighborhood that's surrounded by a containment wall with the help of an ex-con in order to bring down a crime lord and his plot to devastate the entire city.\n\nDirector: Camille Delamarre\nWriters: Luc Besson (screenplay), Bibi Naceri (screenplay)\nStars: Paul Walker, David Belle, RZA | See full cast and crew Â»\n\nVideo\nID                                       : 1\nFormat                                   : MPEG-4 Visual\nFormat profile                           : Simple@L3\nFormat settings, BVOP                    : No\nFormat settings, QPel                    : No\nFormat settings, GMC                     : No warppoints\nFormat settings, Matrix                  : Default (H.263)\nCodec ID                                 : 20\nDuration                                 : 1h 33mn\nBit rate                                 : 783 Kbps\nWidth                                    : 576 pixels\nHeight                                   : 240 pixels\nDisplay aspect ratio                     : 2.40:1\nFrame rate mode                          : Constant\nFrame rate                               : 25.000 fps\nColor space                              : YUV\nChroma subsampling                       : 4:2:0\nBit depth                                : 8 bits\nScan type                                : Progressive\nCompression mode                         : Lossy\nBits/(Pixel*Frame)                       : 0.226\nStream size                              : 522 MiB (85%)\nWriting library                          : ZJMedia MPEG Encoder\n\nAudio\nID                                       : 2\nFormat                                   : AAC\nFormat/Info                              : Advanced Audio Codec\nFormat profile                           : LC\nCodec ID                                 : 40\nDuration                                 : 1h 33mn\nBit rate mode                            : Variable\nBit rate                                 : 128 Kbps\nChannel(s)                               : 2 channels\nChannel positions                        : Front: L R\nSampling rate                            : 48.0 KHz\nCompression mode                         : Lossy\nStream size                              : 85.3 MiB (14%)\n","torrent":{"xt":"urn:btih:55c940d167f87cc42fb9d3b0be97fa4fc7e7135c","amp;dn":"Brick+Mansions+2014+HDCAM+x264+Pimp4003","amp;tr":["udp%3A%2F%2Ftracker.openbittorrent.com%3A80","udp%3A%2F%2Fopen.demonii.com%3A1337","udp%3A%2F%2Ftracker.coppersurfer.tk%3A6969","udp%3A%2F%2Fexodus.desync.com%3A6969"],"infoHash":"55c940d167f87cc42fb9d3b0be97fa4fc7e7135c","infoHashBuffer":{"type":"Buffer","data":[85,201,64,209,103,248,124,196,47,185,211,176,190,151,250,79,199,231,19,92]},"announce":[],"urlList":[]}}